<svg xmlns="http://www.w3.org/2000/svg" width="1200" height="720" viewBox="0 0 1200 720" role="img" aria-labelledby="title desc">
  <title id="title">Elder Futhark Keyboard Placeholder</title>
  <desc id="desc">Placeholder panel for an Elder Futhark keyboard screenshot.</desc>
  <defs>
    <linearGradient id="bg" x1="0" y1="0" x2="1" y2="1">
      <stop offset="0%" stop-color="#efe7d1"/>
      <stop offset="100%" stop-color="#d1c1a5"/>
    </linearGradient>
  </defs>
  <rect width="1200" height="720" fill="url(#bg)"/>
  <rect x="72" y="48" width="1056" height="624" rx="36" fill="#f7f2e7" stroke="#6b5841" stroke-width="4"/>
  <text x="100" y="120" fill="#3c2f22" font-family="Georgia, serif" font-size="40" font-weight="700">Elder Futhark Keyboard</text>
  <text x="100" y="164" fill="#5f4d39" font-family="Helvetica, Arial, sans-serif" font-size="24">Replace this with a real device screenshot saved to docs/media/.</text>
  <rect x="100" y="208" width="1000" height="56" rx="18" fill="#d8e4ef"/>
  <text x="180" y="245" fill="#1f3344" font-family="Helvetica, Arial, sans-serif" font-size="24">Elder</text>
  <text x="310" y="245" fill="#6f8090" font-family="Helvetica, Arial, sans-serif" font-size="24">Younger</text>
  <g fill="#ffffff" stroke="#84705a" stroke-width="2">
    <rect x="100" y="304" width="112" height="88" rx="18"/>
    <rect x="224" y="304" width="112" height="88" rx="18"/>
    <rect x="348" y="304" width="112" height="88" rx="18"/>
    <rect x="472" y="304" width="112" height="88" rx="18"/>
    <rect x="596" y="304" width="112" height="88" rx="18"/>
    <rect x="720" y="304" width="112" height="88" rx="18"/>
    <rect x="844" y="304" width="112" height="88" rx="18"/>
    <rect x="968" y="304" width="112" height="88" rx="18"/>
    <rect x="100" y="408" width="112" height="88" rx="18"/>
    <rect x="224" y="408" width="112" height="88" rx="18"/>
    <rect x="348" y="408" width="112" height="88" rx="18"/>
    <rect x="472" y="408" width="112" height="88" rx="18"/>
    <rect x="596" y="408" width="112" height="88" rx="18"/>
    <rect x="720" y="408" width="112" height="88" rx="18"/>
    <rect x="844" y="408" width="112" height="88" rx="18"/>
    <rect x="968" y="408" width="112" height="88" rx="18"/>
    <rect x="100" y="512" width="112" height="88" rx="18"/>
    <rect x="224" y="512" width="112" height="88" rx="18"/>
    <rect x="348" y="512" width="112" height="88" rx="18"/>
    <rect x="472" y="512" width="112" height="88" rx="18"/>
    <rect x="596" y="512" width="112" height="88" rx="18"/>
    <rect x="720" y="512" width="112" height="88" rx="18"/>
    <rect x="844" y="512" width="112" height="88" rx="18"/>
    <rect x="968" y="512" width="112" height="88" rx="18"/>
  </g>
  <g fill="#2e241a" font-family="Georgia, serif" font-size="42" text-anchor="middle">
    <text x="156" y="362">ᚠ</text>
    <text x="280" y="362">ᚢ</text>
    <text x="404" y="362">ᚦ</text>
    <text x="528" y="362">ᚨ</text>
    <text x="652" y="362">ᚱ</text>
    <text x="776" y="362">ᚲ</text>
    <text x="900" y="362">ᚷ</text>
    <text x="1024" y="362">ᚹ</text>
    <text x="156" y="466">ᚺ</text>
    <text x="280" y="466">ᚾ</text>
    <text x="404" y="466">ᛁ</text>
    <text x="528" y="466">ᛃ</text>
    <text x="652" y="466">ᛇ</text>
    <text x="776" y="466">ᛈ</text>
    <text x="900" y="466">ᛉ</text>
    <text x="1024" y="466">ᛊ</text>
    <text x="156" y="570">ᛏ</text>
    <text x="280" y="570">ᛒ</text>
    <text x="404" y="570">ᛖ</text>
    <text x="528" y="570">ᛗ</text>
    <text x="652" y="570">ᛚ</text>
    <text x="776" y="570">ᛜ</text>
    <text x="900" y="570">ᛞ</text>
    <text x="1024" y="570">ᛟ</text>
  </g>
</svg>
