<svg xmlns="http://www.w3.org/2000/svg" width="1200" height="720" viewBox="0 0 1200 720" role="img" aria-labelledby="title desc">
  <title id="title">Younger Futhark Keyboard Placeholder</title>
  <desc id="desc">Placeholder panel for a Younger Futhark keyboard screenshot.</desc>
  <defs>
    <linearGradient id="bg" x1="0" y1="0" x2="1" y2="1">
      <stop offset="0%" stop-color="#dfe9e2"/>
      <stop offset="100%" stop-color="#bccfc2"/>
    </linearGradient>
  </defs>
  <rect width="1200" height="720" fill="url(#bg)"/>
  <rect x="72" y="48" width="1056" height="624" rx="36" fill="#f4f8f4" stroke="#4e6b55" stroke-width="4"/>
  <text x="100" y="120" fill="#213626" font-family="Georgia, serif" font-size="40" font-weight="700">Younger Futhark Keyboard</text>
  <text x="100" y="164" fill="#416049" font-family="Helvetica, Arial, sans-serif" font-size="24">Replace this with a real device screenshot saved to docs/media/.</text>
  <rect x="100" y="208" width="1000" height="56" rx="18" fill="#d8dde7"/>
  <text x="180" y="245" fill="#7c8796" font-family="Helvetica, Arial, sans-serif" font-size="24">Elder</text>
  <text x="322" y="245" fill="#203646" font-family="Helvetica, Arial, sans-serif" font-size="24">Younger</text>
  <g fill="#ffffff" stroke="#5f7664" stroke-width="2">
    <rect x="124" y="304" width="144" height="88" rx="18"/>
    <rect x="280" y="304" width="144" height="88" rx="18"/>
    <rect x="436" y="304" width="144" height="88" rx="18"/>
    <rect x="592" y="304" width="144" height="88" rx="18"/>
    <rect x="748" y="304" width="144" height="88" rx="18"/>
    <rect x="904" y="304" width="144" height="88" rx="18"/>
    <rect x="202" y="420" width="144" height="88" rx="18"/>
    <rect x="358" y="420" width="144" height="88" rx="18"/>
    <rect x="514" y="420" width="144" height="88" rx="18"/>
    <rect x="670" y="420" width="144" height="88" rx="18"/>
    <rect x="826" y="420" width="144" height="88" rx="18"/>
    <rect x="202" y="536" width="144" height="88" rx="18"/>
    <rect x="358" y="536" width="144" height="88" rx="18"/>
    <rect x="514" y="536" width="144" height="88" rx="18"/>
    <rect x="670" y="536" width="144" height="88" rx="18"/>
    <rect x="826" y="536" width="144" height="88" rx="18"/>
  </g>
  <g fill="#1d2f20" font-family="Georgia, serif" font-size="44" text-anchor="middle">
    <text x="196" y="362">ᚠ</text>
    <text x="352" y="362">ᚢ</text>
    <text x="508" y="362">ᚦ</text>
    <text x="664" y="362">ᚬ</text>
    <text x="820" y="362">ᚱ</text>
    <text x="976" y="362">ᚴ</text>
    <text x="274" y="478">ᚼ</text>
    <text x="430" y="478">ᚾ</text>
    <text x="586" y="478">ᛁ</text>
    <text x="742" y="478">ᛅ</text>
    <text x="898" y="478">ᛋ</text>
    <text x="274" y="594">ᛏ</text>
    <text x="430" y="594">ᛒ</text>
    <text x="586" y="594">ᛘ</text>
    <text x="742" y="594">ᛚ</text>
    <text x="898" y="594">ᛦ</text>
  </g>
</svg>
